<?xml version="1.0" encoding="UTF-8" standalone="no"?>
<svg
   version="1.1"
   id="Layer_1"
   x="0px"
   y="0px"
   viewBox="0 0 140 140"
   xml:space="preserve"
   sodipodi:docname="moon.svg"
   inkscape:version="1.2 (dc2aedaf03, 2022-05-15)"
   width="140"
   height="140"
   xmlns:inkscape="http://www.inkscape.org/namespaces/inkscape"
   xmlns:sodipodi="http://sodipodi.sourceforge.net/DTD/sodipodi-0.dtd"
   xmlns="http://www.w3.org/2000/svg"
   xmlns:svg="http://www.w3.org/2000/svg"><defs
     id="defs328" /><sodipodi:namedview
     id="namedview326"
     pagecolor="#0000ff"
     bordercolor="#000000"
     borderopacity="0.25"
     inkscape:showpageshadow="2"
     inkscape:pageopacity="0"
     inkscape:pagecheckerboard="0"
     inkscape:deskcolor="#d1d1d1"
     showgrid="false"
     inkscape:zoom="6.7458703"
     inkscape:cx="61.519119"
     inkscape:cy="61.222642"
     inkscape:window-width="1920"
     inkscape:window-height="1009"
     inkscape:window-x="-8"
     inkscape:window-y="-8"
     inkscape:window-maximized="1"
     inkscape:current-layer="Layer_1" /><g
     id="g323"
     style="fill:none;stroke:#ffffff"
     transform="matrix(0.96861766,0,0,0.96847842,10.488011,10.486666)"><path
       d="M 49.06,1.27 C 51.23,0.82 53.4,0.5 55.54,0.29 57.74,0.08 59.92,-0.02 62.07,0 c 1.21,0.01 2.18,1 2.17,2.21 -0.01,0.93 -0.6,1.72 -1.42,2.03 -9.15,3.6 -16.47,10.31 -20.96,18.62 -4.42,8.17 -6.1,17.88 -4.09,27.68 l 0.01,0.07 c 2.29,11.06 8.83,20.15 17.58,25.91 8.74,5.76 19.67,8.18 30.73,5.92 l 0.07,-0.01 c 7.96,-1.65 14.89,-5.49 20.3,-10.78 5.6,-5.47 9.56,-12.48 11.33,-20.16 0.27,-1.18 1.45,-1.91 2.62,-1.64 0.89,0.21 1.53,0.93 1.67,1.78 2.64,16.2 -1.35,32.07 -10.06,44.71 -8.67,12.58 -22.03,21.97 -38.18,25.29 -16.62,3.42 -33.05,-0.22 -46.18,-8.86 C 14.52,104.1 4.69,90.45 1.27,73.83 -2.07,57.6 1.32,41.55 9.53,28.58 17.78,15.57 30.88,5.64 46.91,1.75 47.22,1.67 47.58,1.59 47.97,1.5 h 0.01 v 0 z"
       id="path321"
       style="fill:none;stroke:#ffffff" /></g></svg>
