<svg viewBox="0 0 295 3602" fill="none" xmlns="http://www.w3.org/2000/svg">
	<path
		d="M 148.5 0 V 338.5 C 183.2 344.5 253.9 372.4 259.5 436 V 326.5 V 560.5
	C 261 566.3 258.2 580.6 235 591 C 211.8 601.4 107 595.3 57.5 591 C 51.2 588.8
	38 581.6 36 570 C 34 558.4 35.2 492.5 36 461 H 18.5 C 13 460.8 2.2 463.5 3
	475.5 C 3.8 487.5 3.3 508.2 3 517 C 2.7 521 5.4 529.4 18.5 531 C 31.6 532.6
	196.3 531.7 277 531 C 281.3 530.3 290 526.6 290 517 C 290 507.4 290 485.3 290
	475.5 C 290 470.7 287.4 461 277 461 C 266.6 461 263.3 461 263 461 V 691.5 C
	263 744 148.5 761.5 148.5 869.5 V 1263 H 264.5 C 264.5 1272.5 269.6 1291.2 290
	1290 V 1406 C 281.5 1408 264.5 1416.2 264.5 1433 H 26 C 26.8 1424 23.8 1406 5
	1406 V 1290 C 12 1288.7 26 1281.4 26 1263 H 148.5 V 2142 L 131 2158 L 240
	2278.5 L 279.5 2241 L 181 2136.5 L 205.5 2114.5 L 290.5 2199 L 120 2369.5 L
	109.5 2359 L 87 2381.5 L 14 2308.5 L 38.5 2284 L 26 2271.5 L 58.5 2239 L 167
	2347.5 C 186.5 2369.5 148.5 2379 148.5 2424.5 V 3017.5 C 180.3 3048 232.1
	3134.3 184.5 3235.5 H 40.5 V 3196 L 92.5 3165 H 208 L 256 3196 V 3235.5 C
	227.5 3227.7 170.4 3228.5 170 3294.5 C 169 3311.2 163.4 3345.2 149 3348 C
	134.6 3350.8 127 3313.5 125 3294.5 H 149 V 3601.5 "
		stroke="white"
		strokeWidth="6"
		pathLength="1"
	/>
</svg>
