<?xml version="1.0" encoding="UTF-8" standalone="no"?>
<svg
   xml:space="preserve"
   overflow="visible"
   version="1.0"
   stroke="#fff"
   viewBox="0 0 853.276 300.164"
   id="svg1281"
   sodipodi:docname="spaceShuttle2.svg"
   inkscape:version="1.2 (dc2aedaf03, 2022-05-15)"
   xmlns:inkscape="http://www.inkscape.org/namespaces/inkscape"
   xmlns:sodipodi="http://sodipodi.sourceforge.net/DTD/sodipodi-0.dtd"
   xmlns="http://www.w3.org/2000/svg"
   xmlns:svg="http://www.w3.org/2000/svg"><defs
   id="defs1285" /><sodipodi:namedview
   id="namedview1283"
   pagecolor="#ffffff"
   bordercolor="#000000"
   borderopacity="0.25"
   inkscape:showpageshadow="2"
   inkscape:pageopacity="0.0"
   inkscape:pagecheckerboard="0"
   inkscape:deskcolor="#d1d1d1"
   showgrid="false"
   inkscape:zoom="1.418064"
   inkscape:cx="426.28541"
   inkscape:cy="150.20478"
   inkscape:window-width="1920"
   inkscape:window-height="1009"
   inkscape:window-x="-8"
   inkscape:window-y="-8"
   inkscape:window-maximized="1"
   inkscape:current-layer="svg1281" />
	<path
   d="M772.85762 417.46895c-15.28937 4.56499-34.86327 6.28587-47.15447 4.14565-6.2396-1.08647-11.88729-2.53645-12.55043-3.22217-.66316-.68573-2.24613-.7843-3.51769-.21903-1.27159.56526-2.60868.36028-2.97133-.4555-.36264-.81578-14.2679-6.87036-30.90054-13.45459-34.60972-13.70068-126.25408-50.57035-140.61977-56.57307-5.29758-2.21361-10.79111-3.50946-12.20787-2.87966-1.41674.6298-2.94384.31736-3.39357-.69427-1.5015-3.37771-44.43658-18.04264-54.38254-18.57493l-9.81049-.52505L354.80401 368.735l-100.54493 43.71867-3.75598-9.07991c-2.06581-4.99395-5.48247-14.15801-7.5926-20.36462l-3.8366-11.28467-5.07821 1.15035c-2.79302.6327-15.30902 3.85619-27.81335 7.1633-50.7709 13.42781-146.377364 24.64919-149.53288 17.55076-.378623-.85174-2.524378-.73245-4.768342.26508-2.447957 1.0882-4.494484.88112-5.116318-.51772-.570006-1.28226-2.395289-2.88951-4.056174-3.57166-18.662652-7.66516-23.206195-28.80343-10.207382-47.48866 14.594101-20.97838 50.768301-54.06371 85.711816-78.393 16.93942-11.79401 52.38831-34.20926 58.15421-36.77243 1.05304-.46812-2.06445-8.88486-8.54665-23.07466-5.6124-12.28575-10.47697-23.09607-10.81022-24.02289-.39969-1.11176 41.78146-20.35331 123.96913-56.55028L422.3112 65.148558c17.26446-31.89623.81572.74269 15.86835-29.41413 1.50045-2.3283 3.70632-6.66419 4.90193-9.63533 1.19561-2.97114 4.86007-10.99374 8.14321-17.8280202 3.28316-6.83428 7.55543-16.34164 9.49394-21.1275098 1.93852-4.78584 4.55035-10.40704 5.80406-12.49155 1.25372-2.08452 5.48644-10.984876 9.40604-19.778563 3.9196-8.793705 8.62854-19.179779 10.46433-23.080135 1.83578-3.900384 5.74488-12.748508 8.68694-19.662482 2.94202-6.913981 7.29331-14.835378 9.66952-17.603128 4.73634-5.51676 34.96109-21.9036 40.88773-22.16794 1.94914-.08693 8.42686-1.95191 14.3949-4.14438 5.96804-2.19246 11.58941-3.66246 12.49194-3.26664 1.80617.79212 32.37546 45.784727 45.12123 66.410541 4.42951 7.168067 11.01846 16.991958 14.64208 21.830879 3.62359 4.838928 7.84213 11.589158 9.3745 15.000528 1.53237 3.41137 5.05809 9.10002 7.83495 12.64145 4.20482 5.3625 5.69856 6.15014 8.93505 4.7114 3.14544-1.39826 4.27124-.87423 5.90623 2.74926 3.40196 7.5394198 5.34249 7.6920698 19.948 1.56929 9.13729-3.83047 14.23157-5.17517 15.35263-4.05255 1.20854 1.21019 7.40885-3.64887 22.16842-17.37289l20.49061-19.05302 21.88605-7.366965c38.08985-12.821264 49.00851-12.318785 39.71261 1.827566-2.24522 3.416742-4.8269 6.543292-5.73708 6.947903-.91016.404601-1.3284 1.470029-.92938 2.367613.399.897584-.02218 1.96433-.936 2.370551-.9138.40622-5.25394 5.976224-9.64475 12.377782-4.39083 6.40156-15.1373 21.76107-23.88106 34.1322398L746.87044 24.533368l13.7179 30.85887c8.36272 18.81221 13.25584 31.53582 12.5343 32.59296-.70895 1.03868 3.51674 12.334692 10.5375 28.168422 10.86422 24.50184 13.28272 33.07579 9.15636 32.46063-.90544-.13498.73932 6.1102 3.65498 13.87818 6.17726 16.45755 7.49432 14.2641-17.75835 29.57542-14.25429 8.64272-15.54291 9.81865-14.14229 12.90562 1.67562 3.69309 8.72138 29.49397 14.55858 53.31209 2.01927 8.23951 3.32845 16.22157 2.90925 17.73794-.4192 1.51635.12671 3.64708 1.21309 4.735 1.08642 1.08788 3.20888 6.53201 4.71662 12.09806 21.28287 78.56868 26.86132 100.48161 26.61794 104.55886-.28984 4.85563-18.33396 13.04167-24.3749 11.05812-3.83066-1.25783-4.12536-1.12682-3.97504 1.76704.0893 1.71909-.71987 3.40244-1.79815 3.74083-1.07826.33838-6.28953 1.90777-11.58061 3.48754zm35.27692-25.49197c-.75339-2.35249-4.62296-17.34304-8.59907-33.31233-3.9761-15.96929-9.60138-37.65522-12.50064-48.19093-2.89925-10.53572-5.77398-21.35109-6.38826-24.03415l-1.1169-4.87829-18.15569 8.07087c-24.06217 10.69653-25.23165 7.60815-1.40455-3.70917l18.15455-8.62299-3.6753-11.10255c-2.02142-6.10642-4.66521-16.36483-5.87505-22.79645-1.20988-6.43162-3.56352-17.16391-5.23035-23.84955-2.69803-10.82185-3.42218-12.2404-6.59957-12.92785-2.71248-.58685-43.8961 4.04181-51.92126 5.8355-2.34448.524 80.52411 184.98937 84.80946 188.78574 3.41202 3.02269 4.501 2.94615 11.81542-.83051 7.27159-3.75456 7.92347-4.57705 6.68721-8.43734zm-27.2331 13.57196c-.87154-.95627-7.53766-.45377-14.81361 1.11667-7.27595 1.57041-18.15135 2.66401-24.16756 2.43021-12.25798-.47639-7.75487-2.36616 8.2359-3.45629 5.73837-.3912 15.3341-2.06846 21.32384-3.72727l10.89047-3.01602-42.20114-93.79825c-27.48104-61.08072-42.78613-93.58065-43.87826-93.1744-.92243.34314-6.10236 1.55089-11.51095 2.68392-18.90987 3.96134-53.18931 13.32055-53.70554 14.66305-.28641.7448.94838 4.19521 2.74396 7.66758 2.21055 4.2749 2.59003 6.62779 1.17527 7.28709-1.1492.53554-29.52989 13.13187-63.06826 27.99183l-60.97881 27.01812 6.09204 3.39483c3.35062 1.86715 8.96786 4.42319 12.48273 5.68011 3.51487 1.25688 6.78047 3.16211 7.25687 4.23381.47643 1.07169 1.52582 1.94849 2.33202 1.94844 3.02591-.00023 23.37096 11.06017 22.84771 12.42095-.50394 1.31055-3.12608.2987-15.02321-5.79739-2.43172-1.24601-12.35821-6.27034-22.05884-11.16514l-17.63751-8.89965-20.41157 9.04154-20.41157 9.04157 7.22243.85886c8.05475.95786 53.02028 18.14801 54.15642 20.70381.39887.89726 1.67899 1.20739 2.84474.68918 1.16575-.51822 20.86636 6.7023 43.77916 16.04558 22.9128 9.34328 51.27803 20.81828 63.03385 25.50001 59.59993 23.73557 74.98257 30.18144 75.65939 31.70398.40675.91499 2.11839 1.05065 3.80366.30147 1.68526-.74915 4.5083-.64698 6.27345.22703 10.70902 5.30274 63.32047-3.46259 57.71292-9.61523zm-59.3887.99235c-3.11308-2.10973-7.51217-4.42495-9.77575-5.14491-2.26359-.71999-8.74997-3.82021-14.41418-6.88945-5.66422-3.06923-13.98365-7.19345-18.48761-9.16495-4.50397-1.97148-13.5445-6.48051-20.09004-10.02004-6.54555-3.53951-13.52608-7.12346-15.51232-7.96429-1.98621-.84085-7.22666-3.34899-11.6454-5.57365-4.41877-2.22467-19.41059-9.54174-33.31517-16.26015-27.66778-13.36848-33.84151-16.83074-33.16215-18.59746.39347-1.02328 17.40684 6.75516 34.44863 15.74979 3.13489 1.65458 10.7135 5.38366 16.84139 8.28682 6.12786 2.90316 15.13044 7.32683 20.00571 9.83037 4.87528 2.50355 27.61875 13.60136 50.54109 24.6618 22.92233 11.06044 42.02497 20.89276 42.45033 21.84964 1.5068 3.38958-2.30024 3.02092-7.88453-.76352zm60.44845-223.93049c1.13755-1.56119-3.11736-.32603-11.33858 3.29146-7.93703 3.49246-14.27383 5.36191-15.96749 4.71066-1.97021-.7576-4.26716-5.18392-7.69824-14.83472-4.19497-11.79949-5.33433-13.7319-8.01424-13.59268-3.66134.19015-2.56299 3.87499 2.27734 7.64012 1.74633 1.3584 3.64289 4.19541 4.21457 6.30446.67577 2.49289-2.65627-.16445-9.52264-7.59446l-10.56211-11.42913-12.76611 5.675c-14.20185 6.31325-54.18587 19.38973-68.44858 22.3856-11.28707 2.37084-21.35988 1.38863-25.74749-2.51066-4.6829-4.16174-16.84273-30.74959-18.53908-40.53633-1.88642-10.88322.2688-13.10867 28.08827-29.00366 45.69736-26.109712 45.67395-26.091352 15.93982-12.50596-27.9277 12.76005-46.5192 19.68536-49.63267 18.48813-.86658-.33322-2.62605-2.40845-3.90994-4.61164-1.28391-2.20321-3.52133-4.59355-4.97208-5.3119-1.47127-.72853-7.14976-10.911162-12.84117-23.026742-9.8061-20.87476-10.34972-21.6791-13.95898-20.65374-3.43296.97525-3.43584 2.06767-.03347 12.71893 3.73442 11.69078 57.07537 123.160732 66.56158 139.097942 4.79462 8.05516 5.32685 8.41062 10.1612 6.78658 8.32482-2.79661 53.17702-13.58141 70.62924-16.98296 22.27987-4.34248 50.15895-9.11468 51.11037-8.74885 1.38213.53147 23.07755-13.15755 24.97048-15.75545zm9.64518-22.2693-5.31046-11.94606-17.60576 5.58173c-9.68319 3.06995-19.08655 5.65864-20.89637 5.75266-2.96209.15384-2.64748 1.61322 3.15136 14.61794l6.44198 14.44703 19.76485-8.25362 19.76487-8.25362-5.31047-11.94606zM346.89006 361.01483l-1.11081-3.90376-45.61846 20.27908-45.61846 20.27909 1.0401 4.45378 1.04011 4.45381 45.68917-20.82912 45.68916-20.82912-1.11081-3.90376zm98.10859-40.68117c-.56286-6.79247-2.51175-6.21268-49.84589 14.82908-27.05152 12.02539-46.05933 21.22198-45.67045 22.09679.36639.82419.73678 2.8583.82309 4.52029.14089 2.71269 5.00182.86807 47.52274-18.03405 36.42513-16.19229 47.32067-21.60008 47.17051-23.41211zm90.04397-42.47093-1.81367-4.07993-44.06323 19.58773-44.06324 19.58772 1.8137 4.07993 1.81367 4.07992 44.06323-19.58772 44.06322-19.58772-1.81368-4.07993zm95.89893-39.21027c-.31299-.66709-1.75432-2.00526-3.20293-2.97374-2.21346-1.47983-9.71071 1.29274-46.97309 17.3712l-44.33925 19.13209 1.84698 4.15485 1.84698 4.15485 45.6952-20.3132c25.13237-11.17224 45.43912-20.85898 45.12611-21.52605zm-138.83876 49.50349c40.29331-17.91186 43.12725-19.4046 40.96001-21.57484-1.28056-1.28233-6.52697-9.50427-11.65865-18.27093l-9.33031-15.93938-21.33264 9.37683c-11.73297 5.15725-31.24443 13.78954-43.35884 19.18288l-22.02619 9.80608 7.68691 18.54286c8.47726 20.44943 10.47274 23.41105 13.64167 20.2465 1.1713-1.1697 21.60944-10.78621 45.41804-21.37zm-151.74591 60.12737c-.92695-3.61903-4.06014-13.19722-6.96264-21.28488l-5.27727-14.7048-44.24572 19.63575-44.24569 19.63571 1.56555 5.63834c6.25404 22.52381 8.34206 30.54792 8.88503 34.14469l.62212 4.121 45.672-20.30289 45.672-20.30289-1.68538-6.58003zm89.21823-56.10065-9.28098-19.64339-44.44036 19.18956-44.44036 19.18958 5.67404 15.46057c3.12074 8.50332 6.2509 18.06256 6.95596 21.24276l1.28187 5.78219 46.7654-20.78894 46.76542-20.78894-9.28099-19.64339zm191.12422-74.38527c-3.20319-5.83205-7.91557-14.26439-10.47203-18.73852l-4.64807-8.13479-44.9727 19.44345-44.97271 19.44349 2.76398 6.2148c2.72521 6.12767 15.14984 26.50845 18.2254 29.89607 1.21241 1.33545 11.85937-2.82883 45.74013-17.89008l44.15991-19.6307-5.82391-10.60372zm156.54298-80.97507c-3.15947-7.10732-4.2709-8.36938-5.92009-6.72246-1.45543 1.45345-.92895 4.50527 1.85934 10.7776 3.15946 7.10732 4.27088 8.36937 5.92007 6.72245 1.45545-1.45345.92895-4.50527-1.85932-10.77759zm-14.09161 8.704c-1.64149-4.73053-2.76739-5.94798-4.7044-5.0869-1.89158.84086-1.78462 2.84583.41586 7.79588 3.77988 8.50299 7.38814 6.22373 4.28854-2.70898zm7.89521-2.85812c-1.81692-4.08719-3.37699-5.46074-5.61985-4.9479-2.55556.58433-2.57263 1.90692-.09647 7.47712 2.47446 5.5664 3.47168 6.44439 5.61985 4.9479 1.88834-1.31546 1.91508-3.3861.09647-7.47712zm5.16168-25.76009c-7.25471-16.31971-12.21953-25.839502-13.23952-25.386082-1.01998.45344 2.72087 10.517302 9.97558 26.837032 7.25472 16.31971 12.21953 25.83948 13.23951 25.38606 1.01998-.45342-2.72085-10.5173-9.97557-26.83701zm-21.09303 31.69016c-1.75706-3.9526-3.16291-5.33386-4.33762-4.26184-3.26698 2.98133 1.37817 12.58095 5.25405 10.85797.92575-.41152.51335-3.3798-.91643-6.59613zm-8.70377.72594c-1.38592-.94595-1.95662-.2179-1.78222 2.2736.33637 4.80545 3.11787 6.74714 3.51363 2.45277.16905-1.83414-.6101-3.96101-1.73141-4.72637zm-5.18409 3.98277c-.40354-1.7492-1.72967-2.48946-3.24942-1.81387-1.51387.67299-1.94734 2.53674-1.05622 4.54135 1.76801 3.9772 5.33163 1.71975 4.30564-2.72748zm-9.53049 1.50764c-2.39638-.92147-2.65489 2.18458-.31477 3.78185 1.76775 1.20659 2.15273 1.03699 1.96832-.8671-.12609-1.30189-.87019-2.61353-1.65355-2.91475zm35.65802-24.84153c.42997-1.98741 1.98601-4.14877 3.45781-4.80306 1.47183-.65428 2.18635-2.29117 1.58784-3.63754-.59851-1.34638-2.47842-1.82997-4.17755-1.07465-1.69914.75533-4.00173.45967-5.11692-.65704-1.62467-1.62693-5.4427-.51223-19.21449 5.60985l-17.18692 7.64022-3.0005-6.97268c-1.65026-3.83497-5.54755-16.21678-8.66063-27.515152-3.39725-12.32971-6.43537-20.648-7.59919-20.80639-3.09798-.42165-59.8106 27.831112-80.2498 39.978362-10.26274 6.09927-19.43261 11.45065-20.37745 11.89195-.94482.44129-2.65947 3.01421-3.81032 5.71761-1.9361 4.54794-1.4176 6.43339 6.93855 25.23084l9.03102 20.31561 7.83133 1.12939c17.41375 2.51128 50.87642-7.68849 101.79144-31.02719 33.28774-15.25858 38.07046-17.85257 38.75578-21.02013zm-32.38084 13.04071c-4.04244-.5502-3.36494-5.78873.96436-7.45651 4.8164-1.85544 8.29066 2.50645 4.4441 5.57953-1.53708 1.228-3.97088 2.07265-5.40846 1.87698zm22.23079-9.69772c-.70518-.48131-3.37179.44672-5.9258 2.06232-3.8462 2.43304-4.89139 2.38017-6.08625-.30771-1.05513-2.37353-.34675-3.73231 2.63732-5.05884 2.24396-.99753 4.30905-1.29829 4.58908-.66834.28002.62992 2.56857-.15742 5.08562-1.74967 3.34588-2.11652 4.86848-2.2381 5.66243-.45213 1.14587 2.57769-3.77144 7.66981-5.9624 6.17437zM237.3757 364.47406c-.3546-.79768-3.36697-.80473-6.69414-.01568-3.3272.78907-10.27139 1.98504-15.43153 2.65772-8.85842 1.15478-9.51792.91761-11.81454-4.2487l-2.4324-5.47178-20.76126 4.95748c-34.97409 8.35123-70.07068 14.94198-70.80242 13.2959-.7888-1.77445-2.59785-1.30114 43.77091-11.45203 19.10269-4.18189 37.69092-8.3669 41.3072-9.30006 5.79123-1.49438 6.81999-1.14562 8.62977 2.92552 2.63708 5.93218 5.87965 6.74638 18.54606 4.65681 13.39372-2.20955 12.84023-1.80151 12.32004-9.08221-.68231-9.54987-42.90439-103.72658-49.80157-111.08281-4.91918-5.2466-5.42686-5.34767-11.22495-2.23469-29.09947 15.62341-88.50425 57.48671-92.218324 64.98742-4.012293 8.10295 5.098815 39.09676 16.719871 56.87713 11.828383 18.09759 15.300983 24.46967 13.718573 25.1731-1.55262.6902-36.335367 4.14674-42.201161 4.19377-2.118144.01696-3.09558.73051-2.582332 1.88509.454222 1.02178 2.293614 1.69721 4.087553 1.50097 1.79394-.19626 4.995516-.41355 7.114606-.48289 36.934124-1.20834 85.394134-8.81701 132.454264-20.79654 28.48309-7.25059 28.10362-7.12627 27.29578-8.94352zm-67.75423-14.97168c-8.13085 1.87595-9.54613 1.42367-9.5856-3.06321-.02735-3.10752.17168-3.22795 1.81201-1.09645 1.03173 1.34067 4.09756 1.76424 6.96602.96242 4.0157-1.12251 4.84733-2.05283 3.84686-4.30344-1.35313-3.0439-7.87712-3.23885-9.88618-.29542-.65681.96229-1.64108.79699-2.18728-.36735-.54618-1.16434-1.34745.45921-1.78056 3.60788-.97276 7.0718-1.65464 7.38606-10.13909 4.67272-8.45352-2.70343-9.66431-5.1847-5.30002-10.86148 1.87307-2.43639 2.63795-4.12374 1.69971-3.74971-.93825.37405-2.86257 2.60325-4.27627 4.95378-1.41373 2.35053-2.85255 4.08954-3.19738 3.86443-.34485-.22508-4.47204-3.7018-9.17153-7.72606-10.74062-9.1973-12.46185-12.56533-6.87218-13.44712 2.26016-.35655 6.11454-1.52762 8.5653-2.60239 4.92422-2.15949 12.31894 2.31822 15.44622 9.35314 2.14954 4.83546 12.11641 8.19936 20.69523 6.98482 5.70141-.80716 6.80115-.24452 9.63964 4.93185 1.7622 3.21363 2.57135 6.02304 1.79808 6.24316-.77326.22014-4.40609 1.09242-8.07298 1.93843zm-14.11084-6.51065c.75267-2.67354.31263-3.66345-2.17642-4.89592-3.8704-1.91647-4.81567-1.51154-7.4848 3.20642-2.09934 3.71079-2.07269 3.76769 2.24941 4.80131 5.51357 1.31855 6.2518 1.00862 7.41181-3.11181zm-14.40817-9.29257c3.63301-6.04047-2.26575-10.66006-11.57483-9.06474-8.31131 1.42435-8.21543 2.5374.79697 9.254 7.23878 5.39479 7.42129 5.39157 10.77786-.18926zm41.99003-34.18059c-3.24028-7.28913-3.23849-7.29579 2.56483-9.6186 5.71093-2.28581 5.85959-2.20687 8.95442 4.75503 3.11302 7.00281 3.08524 7.10693-2.56482 9.61859-5.67592 2.52316-5.73233 2.4932-8.95443-4.75502zm10.04789-3.77679c-.75149-1.69054-1.94213-2.88504-2.64585-2.65445-.70371.23058-2.67403.74453-4.37847 1.14208-2.34896.54793-2.61214 1.81805-1.08736 5.24807 1.75454 3.94689 2.48873 4.19374 5.74483 1.9316 2.40806-1.67298 3.24822-3.68466 2.36685-5.6673zm-77.83382 20.05296c-1.25937-1.2611-1.96911-3.42337-1.57721-4.80504 2.37034-8.35642 7.52873-22.15515 8.43248-22.5569.58668-.2608 1.88254-2.59587 2.87967-5.18906.99716-2.59319 2.9146-5.20458 4.26097-5.80308 1.34638-.59853 2.12149-1.82261 1.72249-2.72019-.39902-.89759 1.90608-2.80179 5.12242-4.23158 7.23995-3.21842 8.35488.34323 1.85658 5.93089-2.47641 2.12936-4.09184 4.79544-3.58988 5.92463.50196 1.12917-.20008 3.48354-1.56009 5.23192-1.36 1.74838-2.11923 5.20905-1.68717 7.69033.96175 5.52326-3.31899 14.09214-8.10219 16.21846-1.94341.8639-3.96879 2.7029-4.50088 4.08664-.68557 1.78292-1.63454 1.84788-3.25719.22298zm6.61131-7.85503c4.73669-4.4458 7.19461-14.20072 3.8976-15.46852-1.2226-.47012-3.7368 3.58449-6.03489 9.73232-4.27514 11.43681-4.18734 11.67243 2.13729 5.7362zm8.6594-25.43303c-.39902-.89759-1.2581-.85165-1.90908.1021-.65098.95376-.85715 2.46846-.45813 3.36605.399.89758 1.2581.85165 1.90908-.1021.65098-.95376.85713-2.46846.45813-3.36605zm47.09115 3.45543c-.85519-.85636-2.55726-4.43833-3.78236-7.9599-2.06106-5.92457-1.83919-6.59685 2.9701-8.99986l5.19758-2.59699 3.77771 8.49808c3.76721 8.47447 3.76328 8.50381-1.41521 10.55691-2.85612 1.13235-5.89262 1.35813-6.74782.50176zm6.48816-10.42971c-1.17807-2.65011-2.90014-3.40621-6.07118-2.66569-3.98106.9297-4.1913 1.56314-2.08869 6.29304 2.10262 4.72989 2.71372 4.99821 6.07118 2.66568 2.67429-1.85795 3.26674-3.64294 2.08869-6.29303zm582.04561-166.42914c-.93822-.90616-.69924.54347.53105 3.22144 1.23027 2.67796 1.99791 3.41939 1.70582 1.64759-.29209-1.77179-1.29869-3.96285-2.23687-4.86903zm-4.5803-3.3015c.84072-.37371.67245-2.60539-.37393-4.95924-1.50606-3.387932-2.18953-3.700132-3.27987-1.498142-.79341 1.602312.07969 6.080272 2.05937 10.562042 2.30579 5.22015 2.88208 5.93675 1.75129 2.17765-.92699-3.08154-.99757-5.90858-.15686-6.28231zM261.89216 334.98923c20.89169-8.56998 21.06219-8.67769 19.47909-12.30568-2.81685-6.45534.48558-11.69601 6.33294-10.04984 2.15892.60779 3.67023-.05919 5.51877-2.43562 1.69721-2.18187 19.56547-10.80423 53.61088-25.87004 28.08587-12.42859 52.7089-23.35152 54.71784-24.27319 3.61797-1.65989 3.55284-1.90021-6.86672-25.33938l-10.51933-23.66358-22.46113 9.92684c-12.3536 5.45978-51.31549 22.49046-86.58196 37.84598l-64.12084 27.91911L216.42554 301.1c4.8171 12.75014 17.00836 39.84904 20.48106 45.52554.90591 1.48082 1.68019 1.3495 2.59977-.44088.78523-1.5288 9.74894-6.01166 22.38579-11.19543zM736.92536 120.871c-.67552-1.5196-.73872-4.03596-.14042-5.59187.84606-2.20028.19929-2.43395-2.91052-1.05153-3.45281 1.5349-3.6645 2.52841-1.55155 7.28152 1.65936 3.73281 2.99128 4.96038 4.13875 3.81448.93059-.92931 1.13928-2.93297.46374-4.4526zm10.9936-6.04607c-1.77338-3.98926-3.27743-5.38371-4.9871-4.6237-2.69051 1.19604-2.17916 4.01029.80237 4.4161 1.03679.14111 2.15374 1.89525 2.48216 3.89811.33372 2.03537 1.40085 3.28425 2.4194 2.83148 1.00228-.44556.6797-3.38044-.71683-6.52199zm9.79183-4.35282c-.95044-2.13803-2.47698-3.98924-3.39232-4.11381-.91536-.12459-.56383 2.24896.78116 5.27455 1.34498 3.02561 2.87153 4.87682 3.39232 4.11381.52078-.76298.16925-3.13655-.78116-5.27455zm-330.36394 150.4022c-1.7419.28514-4.68603 1.57617-6.54253 2.86894-1.8565 1.29278-.43133 1.05948 3.16707-.51843 3.5984-1.57793 5.11735-2.63566 3.37546-2.35051zm127.20311-59.11252c-2.95422-3.69779-3.96486-3.24852-2.10484.93568.79802 1.79517 2.11657 2.96804 2.93013 2.60638.81356-.36165.44219-1.95558-.82529-3.54206zm27.45186-62.53097c-11.72796-24.61658-21.71767-44.910722-22.19936-45.098072-.48169-.18735-6.8335 2.18892-14.11514 5.28061-14.59343 6.196162-14.38165 5.804802-9.58516 17.711822 3.38165 8.39471.5522 15.21926-7.14759 17.23966l-5.29134 1.38846 5.90472 11.8364c5.6427 11.31109 6.0801 11.75847 9.85575 10.08004 3.82191-1.69898 4.12534-1.36416 9.2871 10.24734l5.33608 12.00371-4.6277 3.87892c-3.60888 3.02495-4.2344 4.76368-2.84119 7.89777 1.30035 2.9252 2.84885 3.71657 5.69029 2.90803 2.14706-.61095 3.55459-1.89627 3.12783-2.85628-.42675-.96002 1.79442-2.8881 4.93597-4.28463 5.5759-2.47869 5.781-2.38372 8.61379 3.98874l2.90188 6.52788 15.73883-6.99648 15.73882-6.99649-21.32358-44.75743zm149.5198-17.32577c-1.50783-3.39195-3.98017-1.51808-3.31879 2.51543.40341 2.46028 1.13535 2.94756 2.4522 1.6325 1.03245-1.03101 1.42243-2.89759.86659-4.14793zM411.60715 263.98921c4.39632-4.80758-16.1361 2.90864-64.0571 24.0731-46.80138 20.66996-50.15013 22.38262-48.9681 25.04357 1.18706 2.67223 4.80621 1.25115 56.16064-22.05154 30.19052-13.69934 55.77955-25.87863 56.86456-27.06513zm154.48261-70.16752c-1.32138-2.97247-2.5663-3.54944-4.92326-2.2817-4.43737 2.38677-1.16321 9.75207 3.42789 7.71115 2.37138-1.05416 2.78029-2.53893 1.49537-5.42945zm177.33882-75.90804c-.37544-.84462-1.6188-1.66308-2.76298-1.8188-1.14419-.15574-1.57139.86178-.94932 2.26113.62206 1.39935 1.86541 2.2178 2.763 1.8188.89758-.39902 1.32477-1.41652.9493-2.26113zm9.79185-4.35282c-.37546-.84462-1.61881-1.66309-2.763-1.81882-1.14419-.15572-1.57139.86178-.94933 2.26113.62207 1.39935 1.86542 2.21781 2.763 1.8188.89759-.399 1.32479-1.41652.94933-2.26111zM297.13211 314.23899c-.399-.89758-1.45986-1.30549-2.35744-.90649-.89759.39901-1.3055 1.45985-.9065 2.35744.39902.89759 1.45986 1.30552 2.35745.9065.89758-.399 1.30551-1.45986.90649-2.35745zm241.55606-107.31511c-.42684-.96019-16.58505 5.26683-41.29814 15.91546-48.41931 20.86337-64.07346 28.43293-63.14053 30.53157.4268.96013 20.78449-7.37062 52.91677-21.65461 32.52169-14.45708 51.95855-23.81013 51.5219-24.79242zm11.39951-5.13291c-.399-.89759-1.45986-1.30552-2.35745-.9065-.89758.399-1.30549 1.45986-.90649 2.35744.39902.89757 1.45986 1.3055 2.35744.9065.89759-.39902 1.30552-1.45986.9065-2.35744zM437.98097 245.7631c3.91387-1.73986 6.78963-3.89776 6.39063-4.79533-.42992-.96709-6.70937 1.02809-15.41321 4.89727-12.51018 5.56122-14.51179 6.92505-13.50094 9.19901.99455 2.23724 2.33884 1.95631 8.29713-1.73391 3.91067-2.42201 10.31255-5.8272 14.22639-7.56704zm-25.34229 7.35664c-1.34581-3.02741-.36296-3.74758 13.56319-9.93828 15.8562-7.04866 17.4619-10.93739 2.16474-5.2426l-8.38474 3.12144-4.35284-9.79182-4.35282-9.79183 7.53075-3.94339c8.05257-4.21664 9.05662-7.15179 2.02781-5.92789-3.41025.59381-4.49907-.15372-5.31538-3.64917-1.34207-5.74696 3.30082-9.95283 8.00558-7.25206 1.94091 1.11419 3.83847 1.22076 4.21682.23684.37834-.98396-2.28754-3.00687-5.92421-4.49543-6.34214-2.59593-6.76461-3.1799-10.34713-14.30188-2.81511-8.73955-3.22162-12.93061-1.65053-17.0164 1.1465-2.98154 1.45525-5.4804.68617-5.55304-.76911-.07261-8.58281 3.17309-17.36382 7.21271-8.78099 4.03962-16.55862 6.93989-17.28361 6.44505-1.70937-1.16674-6.49302 1.1006 65.61971-31.10219 34.53103-15.42023 63.55141-28.78293 64.48971-29.69488 6.38815-6.20875-7.522-1.02465-67.31686 25.08795l-67.75848 29.59033 2.20316 7.59991c3.00883 10.37904 34.74533 81.52291 36.70214 82.27535 2.98873 1.14926 4.28594-.61744 2.84064-3.86872zm-21.76414-48.95913-7.98019-17.9517 4.89591-2.1764 4.89591-2.17642 7.98019 17.95168 7.98019 17.9517-4.89591 2.1764-4.89592 2.17642-7.98018-17.95168zm9.00295-.88646c-1.61869-4.38597-4.19093-8.59241-5.71612-9.34764-2.01718-.99883-2.41773-1.89368-1.4695-3.28293 1.71766-2.51653-.73499-5.07774-3.99095-4.16761-2.05001.57304-1.5451 3.23701 2.47525 13.05971 2.77782 6.7869 5.80787 12.85671 6.73344 13.48847 3.76316 2.56854 4.73573-2.25022 1.96788-9.75zm47.48957 32.98241c-.78334-.30122-.74058.83413.09505 2.52299.92343 1.86636 1.48205 2.08115 1.42428.5477-.05228-1.38767-.73598-2.76947-1.51933-3.07069zm67.40316-30.37715c-1.17348-2.63978-3.06976-4.92702-4.21395-5.08276-1.14419-.15571-4.67915-6.12925-7.85547-13.27451l-5.77514-12.99136 4.51324-1.09929c4.15195-1.01128 4.28734-1.49867 1.69108-6.08831-2.15099-3.80252-3.75059-4.72485-6.72593-3.87822-3.71746 1.0578-4.21475.41125-10.42046-13.54873l-6.51669-14.65952 8.78712-3.31545 8.78714-3.31543 4.24348 6.90872 4.24349 6.90874-2.88632-7.15325c-2.73435-6.77656-2.63791-7.23109 1.83114-8.63189 4.01536-1.25858 5.17343-.66323 7.78098 4.00015 3.49089 6.24315 6.43266 7.99657 8.45216 5.03781 1.00085-1.46631.67254-2.3121-1.17298-3.02175-1.40956-.54202-3.89627-3.95475-5.52599-7.58387-1.62973-3.62911-3.83847-7.11389-4.90833-7.74395-1.18261-.69647-12.6647 3.52342-29.28877 10.76424l-27.34357 11.90983 2.79469 7.6096 2.79469 7.6096-8.40559 3.98098-8.40558 3.98099-3.72885-7.09623c-3.55003-6.75597-3.9922-7.00347-9.22064-5.16113-6.58882 2.32171-6.23645 3.98352 1.33679 6.30464 4.61857 1.41553 6.32018 3.22583 9.27043 9.86253 3.27225 7.36104 3.26139 8.56845-.11503 12.78461-2.05069 2.56072-5.52055 5.63687-7.71077 6.83591-2.19021 1.19902-3.75367 2.69417-3.47431 3.32257.27934.62841.57284 2.39268.65219 3.9206.11048 2.12717 1.14441 2.13517 4.41274.03413 9.55199-6.14049 11.06618-7.78696 10.92002-11.87416-.14701-4.11111-.07635-4.1098 1.8853.03476 1.12092 2.36825 1.28236 4.99601.35875 5.83943-1.08809.99364.42609 2.43565 4.30096 4.09602l5.98025 2.56249-6.12127-12.0878c-3.82425-7.55181-5.74246-13.07298-5.11177-14.71319.74171-1.92888 2.36141.4157 6.10529 8.83768l5.09575 11.46305 5.19645-2.59949c5.16395-2.58322 5.17376-2.65882 1.56816-12.08003l-3.62829-9.48057-4.97737 2.21262c-2.73754 1.21694-5.30381 1.47824-5.70281.58065-.39902-.89758 2.24296-2.95156 5.87104-4.56436l6.59656-2.93242 5.14575 12.85967c3.68301 9.20416 4.5143 13.00146 2.92443 13.35851-1.22174.27435-1.63371 1.82074-.91548 3.43639 1.67138 3.75985-.04746 8.22986-3.8073 9.90127-2.04303.90819-2.38693 2.54447-1.12934 5.37348 1.6982 3.82017 2.26911 3.83391 9.38417.22594l7.57597-3.84168 4.27704 8.29732c3.9392 7.64183 3.9987 8.51526.75337 11.05592-6.54813 5.12632-13.17964 6.15712-15.52376 2.41304-2.65186-4.23561-4.98012-3.44913-5.3654 1.81241-.16137 2.20378-2.59859 5.54596-5.50688 7.55168-12.11067 8.35215-1.94462 5.61723 27.07956-7.28509l31.00745-13.78394-2.13359-4.7996zm25.72575-7.03086c-1.7419.28515-4.68603 1.57618-6.54253 2.86894-1.8565 1.29279-.43133 1.05949 3.16707-.51842 3.59838-1.57793 5.11734-2.63566 3.37546-2.35052zm196.49898-91.01096c-.48932-1.10074-2.17917-1.93437-3.75523-1.85252-1.89379.09835-2.42222 1.14607-1.55826 3.08958.71899 1.6174 2.40884 2.45103 3.7552 1.85252 1.34638-.59851 2.0476-1.98883 1.55829-3.08958zm8.12552-3.70456c-.1568-.35276-1.38668-.1517-2.73306.44681-1.34638.59853-2.13174 1.79957-1.74526 2.66897.38648.86941 1.61637.66834 2.73309-.44681 1.11669-1.11519 1.90206-2.31621 1.74523-2.66897zm-18.50527 4.07854c-.78335-.30122-.74058.83413.09503 2.52298.92345 1.86636 1.48206 2.08116 1.42428.5477-.05227-1.38765-.73595-2.76946-1.51931-3.07068zM541.74544 191.8181c-.39902-.89759-.77201-2.23127-.82888-2.96376-.05688-.73249-5.80871 1.16478-12.78187 4.21616-11.01126 4.8184-12.51177 5.92361-11.4109 8.4048 1.09459 2.46705 2.93761 2.11445 13.50734-2.58419 7.07187-3.14371 11.93348-6.13008 11.51431-7.07301zm212.37559-95.545832c-.08631-1.66199-1.28998-5.57057-2.67479-8.68576l-2.51784-5.66397-9.48566 4.63335c-9.15295 4.47083-9.44367 4.82029-8.28882 9.96272.65825 2.93116 1.6448 5.501652 2.19234 5.712202.87795.33758 16.90446-1.77813 19.81748-2.616192.61283-.17633 1.04363-1.68037.95729-3.34235zM107.73645 380.61141c-.39902-.89759-1.2581-.85164-1.90908.1021-.65098.95376-.85716 2.46848-.45814 3.36606.399.89757 1.2581.85164 1.90908-.10212.65098-.95373.85714-2.46846.45814-3.36604zm336.85368-151.41989c-1.57929-2.49661-2.23889-5.11689-1.46577-5.8229.80677-.73672-.51282-2.43747-3.0973-3.9919-5.23204-3.14678-9.45286-11.49262-7.8804-15.58196.60435-1.57164.36249-2.50652-.54416-2.10347-5.23955 2.32918-1.32915 18.31368 5.1425 21.02103 2.40096 1.00442 2.65973 1.58648 1.29376 2.91034-2.34439 2.27213-.89809 4.86509 3.89865 6.98957 5.52713 2.44794 5.98865 1.85282 2.65272-3.42071zm15.2995-3.14797c2.7473-3.10113 2.65457-5.09301-.70963-15.24206-4.14803-12.51371-7.49521-16.48527-14.31433-16.98462-5.23018-.38298-4.07532 2.12734 1.32889 2.88861 5.85683.82504 10.11719 10.83646 7.63594 17.94369-1.77968 5.09767-1.71626 5.29306 1.32208 4.0732 3.05629-1.2271 3.07752-1.16523.50155 1.46103-1.47944 1.50832-3.76082 2.80631-5.06978 2.88448-1.52349.09094-1.69934 1.67311-.48864 4.39662 2.08223 4.68402 4.72525 4.30056 9.79392-1.42095zm21.41245-15.57723c-2.42777-4.69492-3.79041-5.7297-6.15873-4.6769-1.67265.74355-2.26086 1.88454-1.3071 2.53552 2.42802 1.65726-.47771 2.65763-3.89864 1.3422-2.20026-.84606-2.14677.44672.24079 5.81761 3.06184 6.88774 3.08397 6.89784 8.65545 3.95789 5.41493-2.85735 5.49043-3.13187 2.46823-8.97632zM103.44654 379.75443c-.21236-.47772-2.33372-.79821-4.714151-.71222-3.627206.13107-3.84361-.07903-1.336449-1.29737 2.531236-1.23006 2.442599-2.24977-.575989-6.62675-5.925981-8.59274-18.192659-37.61636-20.268815-47.95716-1.071306-5.33597-2.643269-9.96915-3.493241-10.296-1.925118-.74026-10.975825 7.1701-21.57092 18.85306l-8.07829 8.90779 3.528192 10.84997c1.94053 5.96749 5.844684 15.42411 8.675907 21.0147l5.147661 10.1647 12.036397-1.50194c12.174291-1.51915 18.502737-.95386 14.145254 1.26355-2.933843 1.49295 10.070006.88987 13.979414-.64834 1.60112-.62999 2.7374-1.53628 2.52503-2.01399zm-37.972993-11.77771-9.262468 2.24616-3.887526-8.74513c-6.578195-14.79785-5.653534-19.09959 6.079823-28.28526 3.344131-2.61802 3.716199-2.3979 6.115435 3.6179 1.99368 4.999 1.967284 5.48642-.120267 2.2198-4.057692-6.34945-5.384157-4.0339-2.231427 3.89526 1.538387 3.86909 2.118126 7.6547 1.2883 8.41248-1.069806.97692-.686415 1.78501 1.317696 2.77736 5.793498 2.86872-.063223 9.56974-6.276028 7.18075-2.20028-.84606-2.574474-.51539-1.683889 1.48804.72717 1.63576 3.764331 2.12697 8.322073 1.3459l7.177025-1.22995-3.130031-8.63785c-3.092972-8.53553-3.072755-8.51862 1.706035 1.42778 2.659842 5.53609 4.613696 10.05999 4.341891 10.05311-.271787-.00685-4.662274.99826-9.756642 2.23365zm-11.234628-13.6399c-.783374-.30121-.740582.83413.095031 2.523.923446 1.86636 1.482057 2.08114 1.424282.54768-.052275-1.38765-.735957-2.76947-1.519313-3.07068zm23.842085 1.77149c-1.289461-1.29123-1.895757-3.51462-1.347325-4.94087.725205-1.88595 1.63656-1.95293 3.34163-.2455 1.289461 1.29123 1.895757 3.51462 1.347326 4.94087-.725206 1.88595-1.636561 1.95292-3.341631.2455zm-3.899439-9.21159c-2.045991-1.39649-1.822818-5.0531.367854-6.02694.844614-.37546 2.188582.78612 2.9866 2.58129 1.530082 3.44195-.422039 5.44717-3.354454 3.44565zm-3.174108-9.33857c-.59851-1.34638-.353816-2.77443.54377-3.17343.897586-.39902 2.121662.37611 2.720172 1.72248.598509 1.34638.353816 2.77442-.54377 3.17343-.897568.399-2.121663-.37612-2.720172-1.72248zM721.68446 99.776028c-2.64162-5.94245-3.25831-5.41043-1.94719 1.679962.54522 2.94838 1.59418 4.66613 2.58146 4.22725.91469-.40662.62926-3.06486-.63427-5.907212zm6.14133.03879c-1.39949-6.50895-17.34347-37.73162-18.91179-37.03444-1.00581.44712 1.98136 8.35304 7.90343 20.91751 8.63751 18.325632 12.79057 24.405972 11.00836 16.11693zm20.75412-36.2628c-8.72102-19.61819-11.70282-25.06955-13.04439-23.84796-2.33725 2.12825 11.75536 36.56483 15.77886 38.55711 1.64666.81536 3.27856 3.65518 3.93139 6.84132.70556 3.44356 1.76412 5.15925 2.87775 4.66421 1.1855-.527-1.93565-9.10034-9.54361-26.21468zm7.07165-6.0753c-9.59196-21.57742-12.78644-27.5212-14.13188-26.29433-1.27713 1.16457 1.3514 8.8557 9.90604 28.98526 10.05077 23.65001 11.98491 27.24873 14.13188 26.29431 2.1315-.94752.71409-5.09488-9.90604-28.98524zM432.63196 224.19868c-3.56767-6.68015-3.61989-6.70025-10.74405-4.13138l-7.15897 2.58142 3.30634 7.43772 3.30634 7.4377 7.43771-3.30634 7.4377-3.30632-3.58507-6.7128zm88.62207-34.51024c4.88369-2.31382 13.4503-6.29021 19.03689-8.83643l10.15747-4.6295-3.54975-7.98525c-4.01362-9.02877-6.9972-9.95377-12.42643-3.85255-2.07812 2.33535-3.00675 5.7776-2.36079 8.75104.58565 2.69581.46303 5.27891-.27248 5.74024-5.76503 3.61597-7.00282 3.52233-9.86271-.74615-2.72246-4.06334-3.53492-4.22804-8.07629-1.63728-2.77714 1.5843-5.36548 2.16937-5.75187 1.30018-.38639-.86921-1.99202-1.51339-3.56807-1.43154-2.37357.12329-2.02442 2.02944 2.0336 11.10231 2.69452 6.02442 5.09306 9.93613 5.33006 8.69266.23699-1.24345 4.42665-4.15394 9.31037-6.46773zM56.239993 389.56425c-4.897359-7.11383-14.313848-28.11376-16.200478-36.129l-1.632543-6.93591-3.616293 6.11969c-9.589441 16.22793-4.603034 30.2067 13.91358 39.00483 9.89934 4.70366 11.828726 4.17634 7.535734-2.05961zm20.211219-4.58707c-.399019-.89759-1.827069-1.14228-3.17343-.54375-1.346379.59851-2.121501 1.82258-1.722501 2.72017.399018.89758 1.827051 1.14228 3.17343.54377 1.346378-.59853 2.121501-1.82261 1.722501-2.72019zM448.08676 211.95366c.49336-3.62477-3.18993-4.89271-4.79524-1.65074-.793 1.60147-.74988 3.38405.09582 3.96127 2.04678 1.39703 4.34886.26518 4.69942-2.31053zm79.82015-39.2896c-.3251-1.98264-1.99529-4.00011-3.71154-4.48329-2.57513-.72495-2.65372.17149-.44967 5.12956 2.74118 6.16635 5.21524 5.78212 4.16121-.64627zm195.89114-98.909962c-3.86916-8.70384-7.19411-14.39218-8.16121-13.96227-.9671.4299 1.02809 6.70938 4.89727 15.41322 3.86918 8.70383 7.19412 14.39218 8.16121 13.96226.9671-.4299-1.02808-6.70937-4.89727-15.41321zm7.00559-6.22392c-5.08408-11.43683-6.38043-13.29562-8.08529-11.59314-1.59702 1.59483-.6344 5.16785 4.5101 16.74054 5.73147 12.89317 6.73151 14.32708 8.08527 11.59314 1.14739-2.31715-.01297-6.62417-4.51008-16.74054zm7.80835-4.41811c-6.06136-13.6352-7.46451-15.78414-9.18471-14.06633-1.61485 1.61264-.56622 5.32127 5.12394 18.12147 6.06136 13.6352 7.46451 15.78413 9.18471 14.06633 1.61484-1.61263.56622-5.32127-5.12394-18.12147zM438.95894 204.61024c-1.42018-3.19472-4.47979-1.5104-3.66144 2.01561.49942 2.15188 1.41933 2.70871 2.63737 1.59642 1.02873-.93943 1.48956-2.56485 1.02407-3.61203zm9.62321-2.53381c-.37546-.84459-1.61881-1.66306-2.763-1.81879-1.14419-.15574-1.57137.86177-.94932 2.26112.62206 1.39935 1.86541 2.21782 2.763 1.8188.89758-.399 1.32478-1.41651.94932-2.26113zm15.59424-8.88666c-.37546-.84462-1.61881-1.66308-2.763-1.81882-1.14417-.15572-1.57138.86178-.94931 2.26113s1.86541 2.21782 2.763 1.8188c.89759-.399 1.32477-1.41652.94931-2.26111zm52.45003-23.40465c.58627-.27529-1.1355-5.58037-3.82616-11.78908-4.64362-10.71511-5.1125-11.23706-9.23061-10.27536-2.38618.55724-4.55205 1.56854-4.81306 2.24729-.261.67879 1.95757 6.7053 4.93018 13.39228 5.25087 11.81201 5.4968 12.08365 8.63923 9.54177 1.77897-1.439 3.71416-2.84162 4.30042-3.1169zm11.72719-19.084c-4.2991-9.67095-5.87262-11.88507-7.82854-11.0156-1.86945.83105-1.46791 3.60608 1.69919 11.74284 4.63193 11.90008 7.20266 15.30986 9.77297 12.96269 1.18098-1.07845.01477-5.46026-3.64362-13.68993zM48.198315 366.75373c-1.108757-1.3883-.873314.04618.523232 3.18773 1.396528 3.14154 2.303687 4.27742 2.015916 2.52417-.287789-1.75324-1.430408-4.32361-2.539148-5.7119zM516.21641 147.57965c-4.2672-9.59921-8.483-17.16302-9.65496-17.32253-1.33899-.18224.77873 6.14842 5.94266 17.76485 4.86501 10.94402 8.66537 17.76244 9.65497 17.32253.98377-.43733-1.37657-7.49323-5.94267-17.76485zm-92.15733 56.48773c-.59851-1.34638-2.18978-1.95826-3.53616-1.35975-1.34637.59851-1.95826 2.18979-1.35975 3.53615.59851 1.34638 2.1898 1.95827 3.53616 1.35976 1.34637-.59851 1.95826-2.18978 1.35975-3.53616zM679.73414 84.547008c-.11412-.25672-1.49699-.39979-3.07304-.31794-1.728.08976-2.45164 1.07993-1.82287 2.49436.62878 1.41442 1.84866 1.54063 3.07306.31795 1.11668-1.11519 1.93699-2.23764 1.82285-2.49437zm9.60309-7.68924c-.95149-.92073-.91384.16193.08369 2.40588.99752 2.24396 1.77602 2.99728 1.72998 1.67405-.04604-1.32324-.86219-3.1592-1.81367-4.07993zm7.58031-2.01924c-1.06831-2.40322-3.33452-2.26291-4.30721.2667-.81716 2.12507 3.07461 5.42243 4.29303 3.63735.58276-.85381.58915-2.61064.01418-3.90405zm11.06107-5.89428c-.77447-1.7422-2.14251-2.84115-3.04009-2.44215-.89759.39902-.79656 2.60478.22451 4.90172 1.05293 2.36858 2.3688 3.42566 3.04011 2.44215.65098-.95376.54995-3.15952-.22453-4.90172zm-7.66004 2.09539c-.78336-.30122-.74058.83413.09503 2.52299.92345 1.86636 1.48206 2.08115 1.42428.5477-.05227-1.38767-.73595-2.76947-1.51931-3.07069zm-26.55681 10.18513c14.02333-8.02759 14.2215-8.16091 14.95149-10.05933.34681-.90194-3.89815.37332-9.43324 2.83387-12.55401 5.58072-14.79706 2.94506-5.79677-6.81139 3.44566-3.73513 17.79087-20.43273 31.87826-37.10576 14.08739-16.67306 31.66949-37.4655202 39.07133-46.20546l13.45787-15.89082 16.48543-6.881939c15.86329-6.622226 16.67601-7.186855 21.53597-14.961827l5.05054-8.079892-5.24896 1.038596c-2.88691.571231-8.09549 1.559936-11.57457 2.197146-3.47911.637191-12.42852 3.390609-19.88758 6.118685-13.37967 4.893475-13.58018 5.042299-14.91845 11.07406-.7461 3.362659-4.01763 8.730681-7.27007 11.928931-10.46483 10.29043-76.37265 74.56776-89.77671 87.5557-7.13765 6.91608-17.08278 16.5951-22.1003 21.50896-8.54421 8.36769-17.72743 25.193222-15.94215 29.209262.75117 1.68978 41.15894-16.959282 59.51791-27.468792zM422.19445 191.16774c-1.74355-.86335-3.35677-1.08423-3.58493-.49087-.62864 1.63489 3.04724 3.70885 5.01956 2.83208 1.08216-.48106.54207-1.36241-1.43463-2.34121zm75.07815-33.4431c-.17597-.39582-1.0543-.39321-1.95189.00581-.89758.399-1.28624 1.5032-.86369 2.45376.42256.95056 1.30091.94795 1.95189-.0058.65098-.95376 1.03964-2.05794.86369-2.45377zm113.95064-52.57347c1.44552-3.37347 2.31906-6.829052 1.94121-7.679042-1.85545-4.17389 18.9014-25.80749 92.15958-96.0524502 4.14533-3.97482 8.73678-8.48487 10.20322-10.02237 1.46645-1.5374798 9.11783-9.0307398 17.00307-16.6516798 9.71739-9.39169 14.11057-14.829419 13.63469-16.876587-.95699-4.1166-1.20934-3.910021-37.69105 30.851607-43.85751 41.78966-76.63037 72.63856-88.25382 83.07274-11.21374 10.06638-17.57077 18.94578-22.54875 31.495552-4.50131 11.34805-3.19583 14.27246 4.78707 10.72377 4.31043-1.91613 6.91869-4.55319 8.76478-8.86154zM234.7773 270.69596c-.90573-2.03746-3.42677-1.48449-13.35624 2.92952-7.16368 3.18452-12.54407 4.75653-12.97352 3.79049-.48775-1.0972 28.05361-14.2763 85.13488-39.31143 67.8327-29.75056 85.67803-38.08931 84.96129-39.70064-.71435-1.60588-19.13126 6.06147-86.58583 36.04749-56.03102 24.90785-85.92953 37.52253-86.40397 36.45527-.41916-.94291 4.44244-3.9293 11.51431-7.07301l12.2398-5.44102-5.02305-11.29953-5.02308-11.29955-13.29621 5.27323-13.29622 5.2732 8.43248 18.9588 8.43247 18.95882 13.17968-5.52507c10.88703-4.56398 12.98546-5.96195 12.06321-8.03657zm30.99689-13.80773c-.89871-2.02168-3.55177-1.40046-14.16167 3.31604-10.00789 4.44889-12.82222 6.32914-12.05536 8.05423.75808 1.7053 4.18855.90203 14.16166-3.31605 10.80023-4.56793 12.96287-6.01276 12.05537-8.05422zm30.40587-14.05278c-.17219-1.73418-3.4357-.91578-12.6081 3.16168-10.0688 4.47595-12.16701 5.97113-11.2558 8.02094.92536 2.08161 3.11644 1.53216 12.6081-3.16167 7.41092-3.66488 11.40565-6.51155 11.2558-8.02095zm31.59136-13.5549c-.88196-1.98397-3.7175-1.27914-14.95997 3.71855-11.24247 4.9977-13.66549 6.63049-12.78355 8.61446.88196 1.98398 3.7175 1.27915 14.95997-3.71854 11.24247-4.9977 13.66549-6.63049 12.78355-8.61447zm29.37548-13.05849c-.86365-1.94281-3.44549-1.40004-12.512 2.63034-9.06651 4.03041-11.19927 5.58344-10.33559 7.52627.86365 1.94282 3.44548 1.40005 12.51199-2.63034 9.06652-4.0304 11.19927-5.58343 10.3356-7.52627zM381.62648 205.34c-.8354-1.87925-3.17352-1.52095-10.06406 1.54214s-8.72302 4.55879-7.88764 6.43805c.8354 1.87924 3.17352 1.52096 10.06406-1.54214 6.89054-3.06309 8.72302-4.55879 7.88764-6.43805zM694.23164 67.972118c-1.38767.05227-2.76947.73596-3.07068 1.51931-.30122.78336.83413.74058 2.52298-.09503 1.86636-.92344 2.08116-1.48206.5477-1.42428zM432.59349 182.45928c.30643-.79691-1.25541-2.61702-3.47078-4.04467-3.57714-2.30524-3.84364-2.96787-2.38137-5.92097 1.37497-2.77684 2.0704-3.05087 4.21687-1.66179 1.41371.91489 2.83369 3.0855 3.15552 4.82362.78764 4.25373 3.35797 2.86194 3.71484-2.01153.67363-9.19912-6.88736-16.76636-8.67576-8.68294-.72023 3.25532-1.45856 3.79521-3.92121 2.86728-2.47987-.93441-2.92008-1.95121-2.4106-5.56799.6015-4.26988.42772-4.29688-4.96362-.77097-7.69282 5.03105-8.95251 8.48813-5.7324 15.73189 2.11802 4.76456 4.11099 6.55193 8.56402 7.68051 5.71202 1.44766 10.81091.40152 11.90449-2.44244zm-19.23545-6.86089c-1.33002-2.99194-.9433-4.46684 1.45027-5.53086 2.39356-1.06404 3.7476-.36296 5.07762 2.62898 1.33003 2.99194.9433 4.46684-1.45027 5.53087-2.39356 1.06402-3.74758.36295-5.07762-2.62899zm82.2471-26.02138c-.75531-1.69913-.78387-3.24721-.06343-3.44018 4.15211-1.11212 4.98962-3.06478 3.1192-7.27235-2.13405-4.80063-5.33279-5.65637-11.27284-3.0158-2.7363 1.21638-2.58527 2.61804 1.1996 11.13222 3.55088 7.98784 4.69541 9.37576 6.36044 7.71303 1.11668-1.11517 1.41237-3.41778.65703-5.11692zM725.22246 46.181828c3.72125-4.4081 6.8208-8.93335 10.49912-15.32846l2.62514-4.56405-12.88918-.04441-12.88917-.04441-16.59991 19.97078c-9.12995 10.98393-17.29062 20.27783-18.13483 20.65311-.84418.37527-1.67192 1.68916-1.83941 2.91974-.43332 3.1837 45.0122-18.56805 49.22824-23.5623zm-128.43303 51.06491c4.11845-10.88183 7.2957-14.96692 23.46482-30.1694 6.7921-6.38605 20.40892-19.20089 30.2596-28.47745 9.85069-9.27657 19.48803-18.04046 21.41632-19.47532 3.4364-2.55706 3.37012-2.86041-3.33859-15.2801002-3.76453-6.96918-7.64659-12.95744-8.62681-13.30726-2.12617-.7587298-39.09115 18.6795-51.90833 27.2962902-14.34369 9.643-37.15455 27.86543-41.19006 32.90463l-3.69652 4.61585 11.468 25.79764c6.30741 14.1887 12.17524 26.069602 13.03964 26.401972 3.30989 1.27274 5.79202-1.53487 9.11193-10.306852zm-63.68076 27.658912c1.81187-4.71194-.30756-6.82067-4.1631-4.14208-1.96125 1.36252-5.48598 2.33674-7.83274 2.1649-3.62183-.26523-4.06559.14029-2.93547 2.68252 2.72162 6.12239 12.48319 5.66127 14.93131-.70534zm-277.8715 108.27923-4.96781-11.17528-13.29621 5.27323-13.29623 5.27321 5.44104 12.23979 5.44104 12.23978 12.82298-6.33775 12.82301-6.33772-4.96782-11.17526zm31.00745-13.78396-5.07829-11.42379-12.23979 5.44102-12.23978 5.44104 5.0783 11.4238 5.07829 11.42379 12.23978-5.44102 12.2398-5.44104-5.07831-11.4238zm31.06076-13.66406-5.02498-11.30387-14.11024 5.64028-14.11025 5.6403 5.26348 11.8301 5.26349 11.8301 13.87175-6.16649 13.87175-6.16652-5.025-11.3039zm29.38173-13.04446-5.01877-11.28987-11.66838 4.53801-11.66839 4.53802 5.26336 11.83016 5.26333 11.83017 11.4238-5.07831 11.42382-5.0783-5.01877-11.28988zm29.09765-.87993c-.71722-2.3052-4.54569-11.02345-7.1809-16.35251l-2.57503-5.20735-8.97584 3.99009-8.97584 3.9901 5.0783 11.42379 5.07831 11.42382 8.97584-3.9901c4.9367-2.19454 8.79553-4.56958 8.57516-5.27784zm76.57835-42.77748c-1.78744-4.0265-2.49286-4.18319-7.5871-1.68537-4.98375 2.44367-5.39519 3.25161-3.65242 7.17204 1.77731 3.99813 2.49866 4.15836 7.58711 1.68537 4.99995-2.42996 5.4047-3.22476 3.65241-7.17204zm76.47128-34.44852c2.07882-7.38418-6.48059-11.44312-13.13887-6.23058-6.74648 5.28159.59782 14.64334 8.67196 11.05409 1.95453-.86887 3.96465-3.03945 4.46691-4.82351zM758.98101-.98323216c2.36046-3.15361004 6.8989-9.76140984 10.08542-14.68400984 3.18652-4.92258 7.97465-11.46331 10.6403-14.53495 2.66563-3.07165 4.59951-6.140643 4.29749-6.820033-1.00769-2.266841-20.17875 4.843863-24.83033 9.209783-4.31392 4.04897-40.38148 46.64828-41.16139 48.61556-.66807 1.68524 2.02274 2.01861 13.34418 1.6532l11.02198-.35572 6.15531-8.675c3.38541-4.7712502 8.08658-11.2552302 10.44704-14.40883016zM556.54939 89.663748c1.13503-.61213 1.28334-1.64558.32958-2.29656-2.11439-1.44318-27.36227 9.53199-27.70402 12.04285-.134.984592.17013 1.948802.67586 2.142642.77147.29572 19.89838-8.221542 26.69858-11.888932zM192.72286 240.45283c-1.77158-1.77399 3.5582-4.51345 42.21024-21.69571l44.23785-19.66534-11.97028-26.92752-11.97028-26.92754-44.69118 19.86687-44.69116 19.86687 2.8915 8.97559c1.59032 4.93658 6.41951 16.20237 10.73154 25.0351 4.31203 8.83273 8.80253 18.0503 9.97892 20.48349 1.17641 2.43319 2.85026 4.10777 3.71968 3.72127.86939-.38648.66832-1.61636-.44683-2.73308zm29.68394-11.599c-1.38765.05227-2.76945.73594-3.07068 1.51931-.3012.78337.83415.74058 2.523-.09503 1.86636-.92345 2.08114-1.48206.54768-1.42428zm16.31971-7.25472c-1.38765.05228-2.76943.73596-3.07067 1.51932-.30122.78337.83413.74058 2.52299-.09503 1.86636-.92345 2.08116-1.48206.54768-1.42429zm22.84761-10.1566c-1.38765.05227-2.76945.73595-3.07068 1.51933-.30122.78337.83413.74058 2.523-.09505 1.86634-.92343 2.08114-1.48204.54768-1.42428zm6.52788-2.90188c-1.38765.05228-2.76944.73596-3.07068 1.51931-.30122.78338.83413.74059 2.523-.09503 1.86636-.92344 2.08114-1.48205.54768-1.42428zm47.44428-21.05001c-1.32323.04603-3.15919.86219-4.07992 1.81368-.92073.95148.16193.91383 2.40588-.08369 2.24396-.99751 2.99728-1.77603 1.67404-1.72999zm53.73794-23.9292c-1.38765.05227-2.76945.73595-3.07067 1.51931-.30122.78337.83413.7406 2.52299-.09503 1.86636-.92345 2.08116-1.48206.54768-1.42428zm35.90338-15.96038c-1.38765.05228-2.76947.73596-3.07069 1.51933-.3012.78336.83415.74059 2.52301-.09505 1.86636-.92342 2.08114-1.48204.54768-1.42428zm83.23053-36.99902c-1.38765.05227-2.76944.73595-3.07066 1.51931-.30122.78337.83413.7406 2.52298-.09503 1.86636-.92345 2.08114-1.48206.54768-1.42428zm-128.40367 20.73207-12.21495-26.2705-45.48005 19.69802-45.48005 19.69801 12.16209 27.36179 12.16211 27.36179 45.5329-20.78929 45.53289-20.78932-12.21494-26.2705zm94.79787-29.55414-7.50119-16.875472-8.06123-19.83232c-19.994 8.05728-36.69478 14.78855-56.59099 23.51789l-30.63956 13.620422 8.96318 23.068c4.92978 12.68741 10.3398 25.01428 12.02231 27.39303l3.05913 4.32501 43.12476-19.17056 43.12477-19.17052-7.50118-16.87548zm86.3947-49.077742c-6.42499-14.129-12.42349-25.97439-13.32993-26.3231-3.03028-1.16569-87.28673 35.48224-86.35994 37.56709 25.09618 52.334052 3.48249 6.37342 25.35549 52.337012l86.01623-37.891882-11.68185-25.68912zm135.577-45.1379202c-.62207-1.39935-1.67234-1.75119-2.33394-.7819-.66159.9693-.4765 2.2582.41136 2.8642 2.40523 1.6417102 3.19689.7843102 1.92258-2.0823zM561.57393 54.292608c.29022-4.91745 2.22457-7.28231 13.64503-16.68191 7.31879-6.02371 17.85881-14.06728 23.42229-17.87459l10.11544-6.92235-28.89346-64.996769-28.89345-64.996769-15.07979 6.74645c-11.37609 5.08947-16.44496 8.28296-20.63805 13.002429-3.94081 4.435479-13.28588 26.635092-32.11359 76.287149l-26.55533 70.0312 36.96667-15.90774 36.96666-15.90772 6.04646 13.60171c3.32556 7.48096 8.52496 17.90604 11.55419 23.16686 5.00705 8.69566 5.85365 9.41137 9.31326 7.87344 2.53472-1.12677 3.91844-3.60504 4.14367-7.42139zm124.682-51.8008102c-.39901-.89759-1.82705-1.14228-3.17343-.54377-1.34637.59852-2.1215 1.8226-1.72248 2.72018.399.89759 1.82705 1.14228 3.17343.54377 1.34638-.59852 2.12148-1.8226 1.72248-2.72018zm8.6608-6.89711c-.17595-.39581-1.0543-.3932-1.95189.00581-.89758.39901-1.28623 1.5032-.86367 2.45376.42256.95056004 1.30091.94794004 1.95189-.0058.65098-.95375 1.03964-2.05795.86367-2.45377zm-9.74689 2.31271c2.63511-.45883 4.24675-1.49553 3.81941-2.45684-.41247-.92786-4.70735.10089-9.71514 2.32703-4.9367 2.19455004-8.67331 4.67062-8.30355 5.50241.97029 2.18269 6.72057.68676 8.29862-2.1589.7381-1.33093996 3.39339-2.77711 5.90066-3.2137zm-45.54372-2.27784c9.81203-4.6891 10.08555-4.99212 8.18518-9.0685398-1.08134-2.31956-7.20651-11.56241-13.61152-20.53969l-11.64547-16.322322-15.43414 6.861041-15.43416 6.861049 9.29963 22.152712c5.1148 12.1839898 10.00786 22.8619098 10.87345 23.7287198 1.12425 1.1257702 3.86533.09076 9.59482-3.62287 4.41153-2.8594 12.58901-7.38194 18.17221-10.0501zM480.04761-22.278892c15.06166-39.562477 29.07065-74.075031 31.13105-76.694532 2.38557-3.032906 10.09876-8.038056 21.23659-13.780636 15.8704-8.18265 16.7156-8.82181 9.12527-6.9009-13.03928 3.2999-34.00612 16.45156-36.27989 22.75696-.24073.667554-3.82432 8.434092-7.96351 17.258983-4.1392 8.824893-7.694 16.656171-7.89957 17.402843-.20554.746689-2.65555 6.11698-5.44447 11.934005-2.78891 5.817025-8.31184 17.851377-12.27319 26.742997-19.87214 44.60494-21.76956 48.77391-26.26995 57.71997-2.03658 4.04836-3.41297 8.01281-3.05863 8.80989.51 1.14725 9.12634 6.89487 10.07977 6.72379.12741-.02286 12.55485-32.41087 27.61653-71.97337zm137.64895-37.100863c-2.2253-4.981964-7.54863-13.353763-19.62026-30.856084-2.83719-4.113557-8.70002-13.380721-13.02853-20.593691-11.96148-19.93244-10.81888-19.23627-25.09922-15.29251l-8.05598 2.2248 18.58189 41.800579 18.58189 41.800564 15.50372-6.891975 15.50372-6.891976-2.36723-5.299707z"
   id="path1279"
   style="fill:#ffffff" />
</svg>
